<svg width="135" height="47" fill="none" xmlns="http://www.w3.org/2000/svg">
   <path
      d="M62.75 10.53a2.66 2.66 0 10-5.32 0c0 1.46 1.2 2.66 2.66 2.66 1.46 0 2.66-1.2 2.66-2.66zm2.6 28.1v-1.46l-3.17-1.65V17.89H58v20.74h7.35zm22.98-7.42a7.08 7.08 0 00-3.64-6.03 6.8 6.8 0 003.48-5.87c0-4.44-3.26-7.32-8.45-7.32H68.6l.95 3.33v23.3h10.16c5.54 0 8.6-3.04 8.6-7.41zm-4.5-11.7c0 2.53-1.49 3.93-4.11 3.93h-5.99v-7.9h5.99c2.62 0 4.11 1.43 4.11 3.96zm.13 11.54c0 2.6-1.58 4.03-4.24 4.03h-5.99v-8.1h5.99c2.66 0 4.24 1.44 4.24 4.07zm28.36-2.76c0-6.76-3.83-10.88-10-10.88S92.25 21.53 92.25 28.3c0 6.69 3.9 10.88 10.07 10.88s10-4.19 10-10.88zm-4.34 0c0 4.76-2.21 7.23-5.66 7.23-3.52 0-5.73-2.47-5.73-7.23s2.21-7.3 5.73-7.3c3.45 0 5.66 2.54 5.66 7.3zm26.94 10.34l-7.78-10.44 7.65-10.3h-9.62v1.49l2.76 1.33-3.26 4.6-5.26-7.42h-4.9l7.72 10.3-7.82 10.44h4.87l5.39-7.49 5.34 7.49h4.91z"
      fill="#fff"
   />
   <path
      d="M16.16 20.37a3.92 3.92 0 00-3.91-3.92h-.02a3.9 3.9 0 00-7.02 2.35 3.92 3.92 0 003.91 3.92h.02-.02v4.7a3.92 3.92 0 003.91 3.91h5.47v14.89a.78.78 0 00.79.78h9.38a.78.78 0 00.78-.78V31.33h5.47c2.16 0 3.91-1.75 3.91-3.91v-4.7h-.02.02a3.92 3.92 0 10-1.74-7.42 3.9 3.9 0 00-1.37 1.15h-.02a3.92 3.92 0 00-1.56 7.5v2.68h-4.83a2.34 2.34 0 00-.47-2.35 2.33 2.33 0 00-.87-3.74 2.7 2.7 0 011.24-1.64 10.1 10.1 0 004.93-8.72c0-2.8-1.1-5.4-3.12-7.34A10.07 10.07 0 0023.56.01a10.18 10.18 0 00-4.82 18.9 2.7 2.7 0 011.25 1.63 2.35 2.35 0 00-.88 3.74 2.33 2.33 0 00-.46 2.35H13.8v-2.68a3.91 3.91 0 002.35-3.58zm-1.57 0a2.35 2.35 0 01-3.51 2.03c-.36-.21-.65-.51-.86-.87v-.02c-.1-.17-.18-.35-.23-.54l-.01-.04c-.09-.33-.1-.67-.03-1 .01-.09.04-.16.06-.23l.06-.19c.04-.1.08-.19.14-.28l.05-.09c.06-.1.13-.2.2-.28l.04-.04a2.34 2.34 0 011.44-.77h.02c.1-.02.19-.03.29-.03 1.3 0 2.34 1.05 2.34 2.35zm-6.19.67a2.35 2.35 0 01.72-4.59c.5 0 .96.16 1.35.44l-.09.06c-.25.13-.48.3-.7.48l-.09.08a3.69 3.69 0 00-.44.5l-.2.27c-.1.16-.2.33-.27.51L8.6 19a3.82 3.82 0 00-.2 2.04zm29.08-4.15c.4-.28.87-.44 1.35-.44a2.35 2.35 0 01.72 4.59 3.68 3.68 0 000-1.37l-.05-.21a3.81 3.81 0 00-.14-.46l-.08-.2a3.99 3.99 0 00-.28-.52l-.2-.28a3.68 3.68 0 00-.44-.5l-.1-.07a3.92 3.92 0 00-.69-.48l-.09-.06zm-4.12 3.48c0-1.3 1.05-2.35 2.34-2.35l.3.03H36a2.36 2.36 0 011.44.77l.04.04c.07.09.14.18.2.29.03.02.04.06.06.09.05.09.1.18.13.27.03.06.04.13.06.19.02.07.05.14.06.22.07.34.06.68-.03 1.01v.04c-.06.19-.14.37-.23.54v.02a2.34 2.34 0 01-4.38-1.16zm-13.3 2.35c0-.43.36-.79.79-.79h6.25a.78.78 0 010 1.57h-6.25a.78.78 0 01-.78-.78zM21.64 9.4h-.78a.78.78 0 010-1.57c.43 0 .78.36.78.79v.78zm1.57 1.57h1.56v9.4h-1.57v-9.4zM15.39 9.7a8.66 8.66 0 018.23-8.13A8.55 8.55 0 0131.9 6.8a8.55 8.55 0 01-3.5 10.76 4.23 4.23 0 00-2 2.8h-.07v-9.4h.78a2.35 2.35 0 10-2.34-2.34v.78h-1.57v-.78a2.35 2.35 0 10-2.34 2.35h.78v9.4h-.07a4.24 4.24 0 00-2.02-2.81A8.6 8.6 0 0115.4 9.7zm10.93-.3v-.78c0-.43.35-.79.78-.79a.78.78 0 010 1.57h-.78zm-6.25 16.45c0-.43.35-.78.78-.78h6.25a.78.78 0 010 1.56h-6.25a.78.78 0 01-.78-.78zm4.87 2.35l-.96 1.61L23 28.2h1.93zm-11.9 0h8.15l2.12 3.54a.78.78 0 001.34 0l2.12-3.54h8.15a.78.78 0 00.78-.78v-3.14c.54 0 1.08-.11 1.57-.33v3.47c0 1.3-1.05 2.35-2.35 2.35h-6.25a.78.78 0 00-.78.78v14.88h-3.13v-8.61h-1.57v8.61h-3.12V30.55a.78.78 0 00-.78-.78h-6.26a2.35 2.35 0 01-2.34-2.35v-3.47c.49.22 1.02.33 1.56.33v3.14a.78.78 0 00.78.78zm26.57 4.7h1.57v1.57H39.6V32.9zm0 3.13h1.57v1.57H39.6v-1.57zm-3.12 0h1.56v1.57h-1.56v-1.57zm6.25 0h1.57v1.57h-1.57v-1.57zM6.78 32.9h1.56v1.57H6.78V32.9zm0 3.13h1.56v1.57H6.78v-1.57zm-3.13 0H5.2v1.57H3.65v-1.57zm6.25 0h1.57v1.57H9.9v-1.57zm-3.12 3.14h1.56v1.56H6.78v-1.56zm-3.13 0H5.2v1.56H3.65v-1.56zm-3.13 0h1.56v1.56H.52v-1.56zm9.38 0h1.57v1.56H9.9v-1.56zm3.13 0h1.56v1.56h-1.56v-1.56zm26.58 0h1.57v1.56H39.6v-1.56zm-3.12 0h1.56v1.56h-1.56v-1.56zm-3.13 0h1.56v1.56h-1.56v-1.56zm9.38 0h1.57v1.56h-1.57v-1.56zm3.13 0h1.56v1.56h-1.56v-1.56z"
      fill="#FE9C42"
   />
</svg>
