<svg width="22" height="24" fill="none" xmlns="http://www.w3.org/2000/svg"><path d="M21.4 7.5H.6a.6.6 0 01-.6-.6V5.2C0 4 1 3 2.4 3h2.3V.6c0-.3.3-.6.6-.6h2c.3 0 .6.3.6.6V3H14V.6c0-.3.3-.6.6-.6h2c.3 0 .6.3.6.6V3h2.3C21 3 22 4 22 5.3v1.6c0 .3-.3.6-.6.6zM.6 9h20.8c.3 0 .6.3.6.6v12.2c0 1.2-1 2.2-2.4 2.2H2.4C1 24 0 23 0 21.7V9.7c0-.3.3-.6.6-.6zm12.6 7.5l2.4-2.3c.2-.2.2-.5 0-.8l-1.4-1.3a.6.6 0 00-.8 0L11 14.4 8.6 12a.6.6 0 00-.8 0l-1.4 1.3c-.2.3-.2.6 0 .8l2.4 2.3-2.4 2.3c-.2.2-.2.5 0 .8l1.4 1.3c.2.2.6.2.8 0l2.4-2.3 2.4 2.3c.2.2.6.2.8 0l1.4-1.3c.2-.3.2-.6 0-.8l-2.4-2.3z" fill="#E53E3E"/></svg>