<svg width="360" height="229" fill="none" xmlns="http://www.w3.org/2000/svg"><g filter="url(#filter0_d)"><g clip-path="url(#clip0)"><path d="M98.4 134.1A66.6 66.6 0 1098.4 1a66.6 66.6 0 000 133.1z" fill="#FFF2DF"/><path d="M7 17c0 24.2 15.2 43.8 34 43.8z" fill="#2F2E41"/><path d="M41 60.8c0-24.5 17-44.3 37.9-44.3zM19.3 19.2c0 23 9.7 41.6 21.7 41.6z" fill="#FE9C42"/><path d="M41 60.8C41 29.5 60.6 4.2 84.8 4.2z" fill="#2F2E41"/><path d="M33.8 61.1s4.8-.1 6.3-1.2c1.4-1 7.4-2.2 7.8-.6.3 1.7 7.2 8.3 1.8 8.3A46 46 0 0135.6 66C34 65 33.8 61 33.8 61z" fill="#A8A8A8"/><path opacity=".2" d="M49.8 67a46 46 0 01-14.1-1.7c-1.1-.7-1.6-3-1.7-4.2h-.2s.3 3.9 1.8 4.8a46 46 0 0014 1.7c1.6 0 2.2-.6 2.2-1.4-.3.5-.9.8-2 .8z" fill="#000"/><path d="M69 141.6c32.3 0 58.5-3.5 58.5-8 0-4.3-26.2-7.9-58.4-7.9-32.3 0-58.5 3.6-58.5 8s26.2 8 58.5 8z" fill="#968E7D"/><path opacity=".1" d="M69 140.3c27.2 0 49.1-3 49.1-6.6 0-3.7-22-6.7-49-6.7-27.1 0-49.1 3-49.1 6.7s22 6.6 49 6.6z" fill="#333"/><path d="M268.5 219.5c48.8 0 88.4-5.4 88.4-12 0-6.7-39.6-12.1-88.4-12.1-48.9 0-88.5 5.4-88.5 12 0 6.7 39.6 12 88.5 12z" fill="#333"/><path d="M104 210c29.4 0 53.2-3.3 53.2-7.3s-23.8-7.2-53.1-7.2c-29.4 0-53.2 3.2-53.2 7.2s23.8 7.3 53.2 7.3z" fill="#968E7D"/><path d="M151.6 196.6c28.1 7.2 82.2-9.3 88.1-28M103.8 82s40.6-11.3 43 25c2.6 36.2-33.3 46.5-5.2 53.7M64.5 169s12.2-3.5 13 7.4c.7 11-10 14-1.6 16.2" stroke="#2F2E41" stroke-width="2" stroke-miterlimit="10"/><path d="M250.4 177l-2.5 15.7s-12.1 6.5-3.6 6.7c8.5.2 48.7 0 48.7 0s7.7 0-4.6-6.8L286 176l-35.6 1z" fill="#333"/><path opacity=".1" d="M242.6 199.2c2-1.7 5.3-3.5 5.3-3.5l2.5-15.7H286l2.4 15.5c3 1.6 4.7 2.8 5.7 3.7 1.6-.3 3.3-1.7-5.7-6.6L286 176l-35.6 1-2.5 15.6s-10.2 5.5-5.3 6.5z" fill="#000"/><path d="M342.5 67.5h-149a5.6 5.6 0 00-5.7 5.6v100.5c0 3 2.5 5.6 5.6 5.6h149.1c3.2 0 5.7-2.5 5.7-5.6V73c0-3.1-2.5-5.6-5.7-5.6z" fill="url(#paint0_linear)"/><path d="M268 71.7a1 1 0 100-1.9 1 1 0 000 2z" fill="#FFF2DF"/><path d="M348.2 163.8v9.8a5.7 5.7 0 01-5.7 5.6h-149a5.7 5.7 0 01-5.7-5.6v-9.8h160.4z" fill="#333"/><path d="M309.8 209.6v1.9H208V210l.2-.4 2.5-6.8h97.2l2 6.8zM349 207.8c-.1.7-.8 1.6-2.4 2.4-5.7 2.8-17.3-.8-17.3-.8s-8.9-1.5-8.9-5.5l.8-.4c2.4-1.3 10.3-4.4 24.4 0 1 .4 2 1 2.6 1.8.6.7 1 1.6.8 2.4z" fill="#968E7D"/><path opacity=".1" d="M349 207.8c-7 2.6-13.1 2.8-19.5-1.6a14 14 0 00-8.3-2.7c2.4-1.3 10.3-4.4 24.4 0 1 .4 2 1 2.6 1.8.6.7 1 1.6.8 2.4z" fill="#FFF2DF"/><path d="M340.3 206.2c1.4 0 2.5-.3 2.5-.8 0-.4-1.1-.7-2.5-.7-1.3 0-2.4.3-2.4.7 0 .5 1 .8 2.4.8zM268 175.1a3.6 3.6 0 100-7.2 3.6 3.6 0 000 7.2z" fill="#FFF2DF"/><path opacity=".1" d="M309.8 209.6v1.9H208V210l.2-.4h101.7z" fill="#333"/><path d="M106 50.7H41v75.6h65V50.7z" fill="#2F2E41"/><path d="M112.5 43.2H34.4V70h78.1V43zM112.5 75H34.4v27h78.1V75zM112.5 107H34.4v26.8h78.1V107z" fill="#333"/><path opacity=".4" d="M96.9 47.9h-5v5h5v-5z" fill="#FE9C42"/><path opacity=".8" d="M104 47.9h-5v5h5v-5z" fill="#FE9C42"/><path d="M111.3 47.9h-5v5h5v-5z" fill="#FE9C42"/><path opacity=".4" d="M96.9 79.4h-5v5h5v-5z" fill="#7E21F5"/><path opacity=".8" d="M104 79.4h-5v5h5v-5z" fill="#7E21F5"/><path d="M111.3 79.4h-5v5h5v-5z" fill="#7E21F5"/><path opacity=".4" d="M96.9 111h-5v5h5v-5z" fill="#46BA3C"/><path opacity=".8" d="M104 111h-5v5h5v-5z" fill="#46BA3C"/><path d="M111.3 111h-5v5h5v-5z" fill="#46BA3C"/><path d="M106 193.8a24.7 24.7 0 100-49.3 24.7 24.7 0 000 49.3z" fill="#333"/><path d="M102.2 188.5h-7.5V202h7.5v-13.5zM117.2 188.5h-7.5V202h7.5v-13.5z" fill="#2F2E41"/><path d="M101 204.5c3.4 0 6.2-1 6.2-2.4 0-1.3-2.8-2.3-6.3-2.3-3.4 0-6.2 1-6.2 2.3 0 1.3 2.8 2.4 6.3 2.4zM116 204.1c3.4 0 6.2-1 6.2-2.3 0-1.3-2.8-2.3-6.2-2.3-3.5 0-6.3 1-6.3 2.3 0 1.3 2.8 2.3 6.3 2.3z" fill="#2F2E41"/><path d="M106.6 171.3a8.4 8.4 0 100-16.8 8.4 8.4 0 000 16.8z" fill="#fff"/><path d="M106.6 165.7a2.8 2.8 0 100-5.6 2.8 2.8 0 000 5.6z" fill="#3F3D56"/><path d="M82 146.2c-2-9 4.4-18 14.2-20.2 9.9-2.2 19.5 3.3 21.5 12.2 2 9-4.5 12.2-14.4 14.4-9.9 2.2-19.3 2.5-21.3-6.4z" fill="#FE9C42"/><path d="M129.1 164.2c6.3-2.7 10.7-6.4 9.8-8.4-.8-2-6.6-1.4-12.8 1.3-6.3 2.7-10.7 6.4-9.9 8.4.9 2 6.6 1.4 13-1.3zM82.9 180.8c6.2-2.7 10.6-6.5 9.8-8.4-.9-2-6.6-1.4-12.9 1.3-6.3 2.6-10.7 6.4-9.8 8.4.8 2 6.6 1.4 12.9-1.3z" fill="#333"/><path d="M120.3 176.3c0 2.4-6.2 7.2-13.1 7.2-6.9 0-13.4-4.4-13.4-6.9 0-2.4 6.5-1.8 13.4-1.8 7 0 13.1-.9 13.1 1.5z" fill="#fff"/><g filter="url(#filter1_d)"><path d="M252.2 102.2c-1.3 0-2.3-.3-3-.8-.7-.6-1-1.4-1-2.3v-7.6h1.4v7.6c0 .6.2 1 .7 1.4.4.4 1 .5 2 .5.8 0 1.4-.1 1.8-.5.5-.3.7-.8.7-1.4v-7.6h1.5v7.6c0 1-.4 1.7-1.1 2.3-.7.5-1.7.8-3 .8zm10.8-7.4a2.9 2.9 0 012.7 1.7c.3.5.4 1.1.4 1.7v.5c0 .6-.2 1.2-.4 1.7a3 3 0 01-1 1.3 3 3 0 01-1.7.5c-.6 0-1-.1-1.4-.3l-1-.8v4.2h-1.2v-8.8l-.1-.5-.5-.4.9-.8c.3.1.5.3.6.5.2.2.3.4.3.7.5-.8 1.3-1.2 2.4-1.2zm1.7 3.4c0-.7-.1-1.3-.5-1.7-.4-.5-.9-.7-1.5-.7-1 0-1.7.5-2 1.5v2.3c.3 1 1 1.5 2 1.5.6 0 1.1-.2 1.5-.6.4-.5.5-1 .5-1.8v-.5zm6.2 4c-.7 0-1.2-.1-1.6-.3-.4-.2-.8-.5-1.2-1l.9-.7.8.7c.3.2.6.2 1 .2 1.1 0 1.7-.3 1.7-1 0-.2 0-.4-.2-.5-.1-.2-.3-.3-.6-.4l-1.3-.3a3 3 0 01-1.5-.7c-.4-.3-.6-.8-.6-1.4 0-.6.3-1.1.7-1.5.5-.3 1.2-.5 2-.5 1.2 0 2 .4 2.5 1.1l-.8.7c-.3-.2-.5-.5-.8-.6l-1-.2c-.4 0-.7.1-1 .3-.2.2-.3.4-.3.7 0 .3.1.6.3.7l1.1.4c.7.1 1.2.3 1.6.5.4.1.7.3.8.6.2.3.3.7.3 1.1 0 1.4-1 2-2.8 2zm6 0l-.6-.3a.9.9 0 01-.3-.6c0-.3.1-.5.3-.6l.6-.3c.3 0 .5 0 .7.3l.2.6c0 .2 0 .4-.2.6-.2.2-.4.3-.7.3zm4.6 0c-.3 0-.5-.1-.7-.3a.9.9 0 01-.2-.6c0-.3 0-.5.2-.6.2-.2.4-.3.7-.3.2 0 .4 0 .6.3.2.1.3.3.3.6l-.3.6-.6.3zm4.5 0c-.2 0-.5-.1-.6-.3a.9.9 0 01-.3-.6c0-.3.1-.5.3-.6.1-.2.4-.3.6-.3.3 0 .5 0 .6.3.2.1.3.3.3.6l-.3.6c-.1.2-.3.3-.6.3zm-72.4 20c-1 0-1.7-.2-2.3-.5-.6-.3-1.2-.7-1.7-1.4l1-.8c.4.5.8 1 1.3 1.2.4.2 1 .3 1.7.3.8 0 1.5-.1 2-.4.4-.3.7-.8.7-1.4 0-.4-.1-.7-.3-.9-.2-.2-.5-.4-1-.5l-2-.6c-1-.2-1.8-.5-2.2-1-.5-.5-.8-1.1-.8-1.9 0-1 .4-1.6 1-2.2.7-.5 1.6-.8 2.8-.8 1.7 0 2.9.6 3.6 1.7l-1 .8c-.3-.4-.7-.8-1.1-1-.4-.2-1-.3-1.5-.3-.8 0-1.3.1-1.7.5-.4.3-.6.7-.6 1.3 0 .5.2.9.6 1.2.4.2 1 .5 1.8.6 1 .2 1.6.4 2.2.7.5.2 1 .5 1.2.9.3.3.4.8.4 1.5 0 1-.3 1.7-1 2.2-.7.5-1.8.8-3.1.8zm9.6 0c-1 0-1.8-.3-2.3-.7-.6-.5-.8-1.2-.8-2v-2c0-.9.2-1.5.8-2 .5-.5 1.3-.7 2.3-.7 1 0 1.7.2 2.2.7.5.5.8 1.1.8 2v2c0 .8-.3 1.5-.8 2-.5.4-1.3.7-2.2.7zm0-1c.5 0 1-.2 1.2-.5.3-.3.5-.7.5-1.3v-1.9c0-.5-.2-1-.5-1.2-.3-.3-.7-.5-1.2-.5-.6 0-1 .2-1.4.5-.3.3-.4.7-.4 1.2v2c0 .5.1.9.4 1.2.4.3.8.4 1.4.4zm13.8-6.4c.7 0 1.2.2 1.6.6.3.4.5 1 .5 1.8v4.8h-1.3v-4.7c0-.4 0-.8-.3-1a1 1 0 00-.9-.5c-.4 0-.8.2-1.2.5-.3.4-.5.8-.6 1.4v4.3h-1.3v-4.7c0-.4-.2-.8-.4-1a1 1 0 00-.8-.5c-.5 0-.9.2-1.2.6-.3.3-.6.8-.7 1.3v4.3h-1.3v-5.5l-.1-.5-.5-.4.9-.8c.6.3 1 .7 1 1.4.2-.5.5-.8 1-1 .3-.3.7-.4 1.2-.4.6 0 1 .1 1.3.4.4.3.6.7.7 1.2a2.4 2.4 0 012.4-1.6zm8 6.3l1.1-.1.9-.6.8.7c-.3.4-.7.6-1.1.8-.5.2-1 .3-1.7.3-1 0-1.8-.3-2.3-.7-.5-.4-.8-1.1-.8-2v-2.2c0-.8.3-1.4.8-1.8.6-.5 1.3-.7 2.2-.7 1 0 1.7.2 2.2.7.6.5.8 1.1.8 2 0 .6 0 1-.3 1.2-.2.3-.6.4-1.2.4h-3.2v.4c0 .6.2 1 .5 1.2.3.3.7.4 1.4.4zm0-5.3c-.6 0-1 .1-1.3.4-.3.3-.5.7-.5 1.2v.7h2.6l.6-.1c.2-.1.2-.3.2-.6 0-.5-.1-.9-.4-1.2-.3-.3-.8-.4-1.3-.4zm6.7.2v3.8c0 .4 0 .7.2 1l.9.2h1v1h-1c-.9 0-1.5-.1-1.9-.5-.3-.3-.5-1-.5-1.7v-6.3c0-.2 0-.4-.2-.5 0-.2-.2-.3-.4-.5l.9-.7.8.6.2 1v1.5h2v1h-2zm8.3-1.2c.8 0 1.3.2 1.7.6.4.4.7 1 .7 1.8v4.8H261v-4.7c0-.4 0-.8-.3-1-.3-.3-.6-.5-1-.5-.5 0-.9.2-1.2.5a3 3 0 00-.8 1.4v4.3h-1.3v-9.3l-.1-.5c-.1-.1-.2-.3-.5-.4l1-.8c.3.2.6.4.7.7l.2 1v3.4c.2-.4.6-.7 1-1 .3-.2.8-.3 1.3-.3zm6.1-1.2l-.6-.3a.8.8 0 01-.2-.6c0-.2 0-.4.2-.6a.8.8 0 011.2 0l.3.6c0 .3-.1.5-.3.6-.1.2-.3.3-.6.3zm.4 8.6a2 2 0 01-.8-.7l-.2-1V115h1.3v5.4l.1.5.5.5-1 .8zm7.3-7.4c.7 0 1.3.2 1.7.6.4.4.6 1 .6 1.8v4.8h-1.3v-4.7c0-.4-.1-.8-.4-1-.2-.3-.5-.5-1-.5-.4 0-.8.2-1.2.5a3 3 0 00-.7 1.4v4.3h-1.3v-5.5c0-.2 0-.4-.2-.5l-.4-.4.9-.8.7.6.3.7a2.6 2.6 0 012.3-1.3zm12.1.8l-.4.4-.1.5v6c0 .8-.3 1.5-.7 1.9-.5.4-1.2.6-2.2.6h-2v-1h2c.5 0 .9-.2 1.1-.4.3-.3.4-.7.4-1.2V121c-.4.7-1.2 1.1-2.2 1.1-1 0-1.7-.3-2.3-1-.6-.5-.8-1.4-.8-2.5v-.3c0-.6 0-1.2.3-1.8a2.9 2.9 0 012.8-1.6c.5 0 1 0 1.3.3.4.2.8.5 1 .9 0-.3.2-.5.3-.7.1-.2.3-.4.6-.5l1 .8zm-3.8 5.4c.5 0 .9-.2 1.2-.4.3-.3.6-.6.7-1.1v-2.2c-.1-.5-.4-.9-.7-1.1a2 2 0 00-1.2-.4c-.7 0-1.2.2-1.6.7-.3.4-.5 1-.5 1.7v.3c0 .8.2 1.3.5 1.8.4.4 1 .7 1.6.7zm10.5-6h1.2l1.3 5.8.3-.1.1-.4 1.7-4.8 1.6 4.8c.1.3.2.5.4.5l1.4-5.8h1.1l-1.6 7h-.5c-.5 0-.8 0-1-.3-.3-.2-.4-.5-.6-1l-.8-2.5-.9 2.6a2 2 0 01-.5 1l-1 .2h-.6l-1.6-7zm14.2 6.1l1-.1 1-.6.7.7c-.3.4-.7.6-1.1.8-.4.2-1 .3-1.6.3-1 0-1.9-.3-2.4-.7-.5-.4-.8-1.1-.8-2v-2.2c0-.8.3-1.4.8-1.8.6-.5 1.3-.7 2.2-.7 1 0 1.7.2 2.3.7.5.5.8 1.1.8 2 0 .6-.2 1-.4 1.2-.2.3-.6.4-1.1.4H305v.4c0 .6.1 1 .4 1.2.3.3.8.4 1.4.4zm-.2-5.3c-.5 0-1 .1-1.2.4-.3.3-.4.7-.4 1.2v.7h2.5l.7-.1.1-.6c0-.5-.1-.9-.4-1.2-.3-.3-.7-.4-1.3-.4zm9.4-1c.7 0 1.3.2 1.7.6.4.4.6 1 .6 1.8v4.8h-1.4v-4.7c0-.4 0-.8-.3-1-.3-.3-.6-.5-1-.5-.5 0-.9.2-1.2.5a3 3 0 00-.8 1.4v4.3h-1.3v-5.5l-.1-.5-.4-.4.8-.8.7.6c.2.2.3.4.3.7a2.6 2.6 0 012.4-1.3zm6.5 1.2v3.8c0 .4.1.7.3 1l.8.2h1v1h-1c-.9 0-1.5-.1-1.9-.5-.3-.3-.5-1-.5-1.7v-6.3l-.1-.5-.5-.5 1-.7.7.6.2 1v1.5h2v1h-2zm-76.4 19h1.2l1.3 5.8.2-.1.2-.4 1.6-4.8 1.7 4.8c0 .3.2.5.4.5l1.3-5.9h1.2l-1.6 7.1h-.6c-.4 0-.7 0-1-.3-.2-.1-.4-.5-.5-1l-.9-2.5-.8 2.6a2 2 0 01-.6 1l-1 .2h-.5l-1.6-7zm15-.2c.5 0 .8 0 1.1.3l-.3 1.2c-.3-.2-.7-.3-1-.3-.5 0-1 .1-1.2.5-.3.4-.6 1-.7 1.6v3.9h-1.4v-5.5-.5l-.5-.4.9-.8.7.6c.2.2.2.5.3 1 .2-.5.5-1 .9-1.2.3-.3.8-.4 1.3-.4zm5.8 7.4c-1 0-1.7-.3-2.3-.7-.5-.5-.8-1.2-.8-2v-2c0-.9.3-1.5.8-2 .6-.5 1.3-.7 2.3-.7 1 0 1.7.2 2.3.7.5.5.8 1.1.8 2v2c0 .8-.3 1.5-.8 2-.6.4-1.3.7-2.3.7zm0-1c.6 0 1-.2 1.3-.5.3-.3.4-.7.4-1.3v-1.9c0-.5-.1-1-.4-1.2-.3-.3-.7-.5-1.3-.5-.6 0-1 .2-1.3.5-.3.3-.5.7-.5 1.2v2c0 .5.2.9.5 1.2.3.3.7.4 1.3.4zm9.6-6.4c.7 0 1.3.2 1.7.6.4.4.6 1 .6 1.8v4.8h-1.3v-4.7c0-.4-.1-.8-.4-1-.2-.3-.6-.5-1-.5s-.9.2-1.2.5a3 3 0 00-.7 1.3v4.4h-1.4v-5.5-.5l-.5-.4.9-.8.7.6.2.7a2.6 2.6 0 012.4-1.3zm12 .8l-.3.4-.2.5v6c0 .8-.2 1.4-.7 1.9-.4.4-1.2.6-2.2.6h-1.8v-1h1.8c.6 0 1-.2 1.2-.4.3-.3.4-.7.4-1.2V141c-.5.7-1.2 1.1-2.3 1.1-1 0-1.7-.3-2.2-1-.6-.6-.9-1.4-.9-2.4v-.4c0-.6.2-1.2.4-1.8a2.9 2.9 0 012.7-1.6c.5 0 1 0 1.4.3.4.2.7.5 1 .9 0-.3.1-.5.3-.7 0-.2.3-.4.6-.5l.9.8zm-3.8 5.4c.6 0 1-.2 1.3-.4.3-.3.6-.6.7-1.2v-2c-.1-.6-.4-1-.7-1.2a2 2 0 00-1.3-.4c-.6 0-1.1.2-1.5.7-.4.4-.5 1-.5 1.7v.4c0 .7.1 1.2.5 1.7.4.4.9.7 1.5.7z" fill="#FFF2DF"/></g></g></g><defs><filter id="filter0_d" x="0" y="0" width="359.9" height="228.5" filterUnits="userSpaceOnUse" color-interpolation-filters="sRGB"><feFlood flood-opacity="0" result="BackgroundImageFix"/><feColorMatrix in="SourceAlpha" values="0 0 0 0 0 0 0 0 0 0 0 0 0 0 0 0 0 0 127 0"/><feOffset dx="-2" dy="4"/><feGaussianBlur stdDeviation="2.5"/><feColorMatrix values="0 0 0 0 0 0 0 0 0 0 0 0 0 0 0 0 0 0 0.25 0"/><feBlend in2="BackgroundImageFix" result="effect1_dropShadow"/><feBlend in="SourceGraphic" in2="effect1_dropShadow" result="shape"/></filter><filter id="filter1_d" x="202.6" y="90.5" width="124.9" height="63.5" filterUnits="userSpaceOnUse" color-interpolation-filters="sRGB"><feFlood flood-opacity="0" result="BackgroundImageFix"/><feColorMatrix in="SourceAlpha" values="0 0 0 0 0 0 0 0 0 0 0 0 0 0 0 0 0 0 127 0"/><feOffset dx="-2" dy="4"/><feGaussianBlur stdDeviation="2.5"/><feColorMatrix values="0 0 0 0 0 0 0 0 0 0 0 0 0 0 0 0 0 0 0.25 0"/><feBlend in2="BackgroundImageFix" result="effect1_dropShadow"/><feBlend in="SourceGraphic" in2="effect1_dropShadow" result="shape"/></filter><linearGradient id="paint0_linear" x1="187.8" y1="123.3" x2="348.2" y2="123.3" gradientUnits="userSpaceOnUse"><stop stop-color="#FE9C42"/><stop offset="1" stop-color="#7E21F5"/></linearGradient><clipPath id="clip0"><path fill="#fff" d="M7 1h349.9v218.5H7z"/></clipPath></defs></svg>