<svg width="32" height="30" fill="none" xmlns="http://www.w3.org/2000/svg">
   <path
      d="M5.12 4.286H2.757c-.655 0-1.182.716-1.182 1.607v6.964H.394c-.217 0-.394.241-.394.536v3.214c0 .295.177.536.394.536h1.181v6.964c0 .89.527 1.607 1.182 1.607H5.12c.654 0 1.181-.716 1.181-1.607V5.893c0-.89-.527-1.607-1.181-1.607zm25.992 8.571h-1.181V5.893c0-.89-.527-1.607-1.182-1.607h-2.363c-.655 0-1.181.716-1.181 1.607v18.214c0 .89.526 1.607 1.181 1.607h2.363c.655 0 1.181-.716 1.181-1.607v-6.964h1.182c.217 0 .394-.241.394-.536v-3.214c0-.295-.177-.536-.394-.536zM22.448 0h-2.363c-.655 0-1.181.717-1.181 1.607v11.25h-6.302V1.607c0-.89-.526-1.607-1.181-1.607H9.058c-.655 0-1.182.717-1.182 1.607v26.786c0 .89.527 1.607 1.182 1.607h2.363c.655 0 1.181-.716 1.181-1.607v-11.25h6.302v11.25c0 .89.526 1.607 1.18 1.607h2.364c.655 0 1.181-.716 1.181-1.607V1.607C23.63.717 23.103 0 22.448 0z"
      fill="#fff"
   />
</svg>
