<svg width="22" height="24" fill="none" xmlns="http://www.w3.org/2000/svg"><path d="M21.4 7.5H.6a.6.6 0 01-.6-.6V5.2C0 4 1 3 2.4 3h2.3V.6c0-.3.3-.6.6-.6h2c.3 0 .6.3.6.6V3H14V.6c0-.3.3-.6.6-.6h2c.3 0 .6.3.6.6V3h2.3C21 3 22 4 22 5.3v1.6c0 .3-.3.6-.6.6zM.6 9h20.8c.3 0 .6.3.6.6v12.2c0 1.2-1 2.2-2.4 2.2H2.4C1 24 0 23 0 21.7V9.7c0-.3.3-.6.6-.6zM16 15.6c0-.3-.3-.6-.6-.6h-3v-2.8c0-.3-.2-.6-.5-.6h-2c-.3 0-.6.3-.6.6V15h-3c-.2 0-.5.3-.5.6v1.8c0 .3.3.6.6.6h3v2.8c0 .3.2.6.5.6h2c.3 0 .6-.3.6-.6V18h3c.2 0 .5-.3.5-.6v-1.8z" fill="#46BA3C"/></svg>