<svg width="248" height="220" fill="none" xmlns="http://www.w3.org/2000/svg"><g filter="url(#filter0_d)"><g clip-path="url(#clip0)"><path d="M208.64 79.1c-11.318-44.585-50.427-76.77-96.333-78.06C88.038.356 62.5 8.42 43.907 36.635c-33.238 50.439 2.042 85.294 26.639 101.856a154.033 154.033 0 0131.812 28.643c16.614 19.75 48.575 44.293 86.64 5.839 27.59-27.872 27.182-64.175 19.642-93.873z" fill="#F2F2F2"/><path d="M125.971 198.427c65.705 0 118.97-2.697 118.97-6.024 0-3.328-53.265-6.025-118.97-6.025C60.265 186.378 7 189.075 7 192.403c0 3.327 53.265 6.024 118.971 6.024zM198.446 204.714c25.711 0 46.554-1.056 46.554-2.358s-20.843-2.357-46.554-2.357c-25.711 0-46.553 1.055-46.553 2.357 0 1.302 20.842 2.358 46.553 2.358zM110.558 211c25.711 0 46.554-1.055 46.554-2.357 0-1.302-20.843-2.358-46.554-2.358-25.71 0-46.554 1.056-46.554 2.358S84.847 211 110.558 211z" fill="#3F3D56"/><path d="M185.162 92.72s7.909-.115 6.224 2.268c-1.685 2.382-8.222 2.216-8.222 2.216l1.998-4.483z" fill="#FFB9B9"/><path d="M160.836 63.343l8.003 10.886 6.92 8.282s7.17 7.492 7.969 8.528c.8 1.036 3.149.74 2.649 2.319s-1.246 4.21-2.027 4.483c-.78.273-4.448-.197-4.717-.717-.269-.52-17.408-10.224-23.525-17.208l-5.82-3.957-.088-6.697 10.636-5.919z" fill="#FE9C42"/><path d="M160.836 63.343l8.003 10.886 6.92 8.282s7.17 7.492 7.969 8.528c.8 1.036 3.149.74 2.649 2.319s-1.246 4.21-2.027 4.483c-.78.273-4.448-.197-4.717-.717-.269-.52-17.408-10.224-23.525-17.208l-5.82-3.957-.088-6.697 10.636-5.919z" fill="#FE9C42"/><path opacity=".1" d="M160.836 63.343l8.003 10.886 6.92 8.282s7.17 7.492 7.969 8.528c.8 1.036 3.149.74 2.649 2.319s-1.246 4.21-2.027 4.483c-.78.273-4.448-.197-4.717-.717-.269-.52-17.408-10.224-23.525-17.208l-5.82-3.957-.088-6.697 10.636-5.919z" fill="#000"/><path d="M164.146 58.291l1.664 3.93h1.473l-2.091-9.954c0-6.39-3.079-11.787-9.456-11.787a8.058 8.058 0 00-5.702 2.365 8.084 8.084 0 00-2.361 5.712v9.762a3.903 3.903 0 003.895 3.901h11.434l1.144-3.929zM137.083 158.744s-2.353 3.143-2.353 3.929-1.307 1.048-2.092 1.833c-.784.786-1.569.524-1.046 1.31.523.786-6.537 5.501-6.537 5.501l-6.798 8.906 1.83 1.571 5.23-5.5-.785 9.691 7.322 6.811s3.137.523 3.399 0c.261-.524-2.615-5.763-2.615-5.763s.262-4.715 1.83-6.548a26.69 26.69 0 002.615-3.668s-.784-1.047 1.046-1.309.523-1.834.523-1.834.523-.262 2.092-.262 8.628-7.596 8.628-7.596l-12.289-7.072zM166.368 166.864s-1.046 3.667.785 5.762c1.83 2.096 0 1.572 0 1.572s.261 1.572-.785 2.357c-1.046.786-1.046 2.358-1.046 2.358s-1.307 2.619-1.046 4.191c.262 1.571.262 9.43.262 9.43h2.615v-6.811l5.229 6.811h13.074s-.262-1.31-1.569-1.572-5.23 0-6.014-5.501c0 0-.261-3.143-.784-3.667s-1.046-2.357-.523-3.667c.523-1.31 0-1.833.784-2.357.785-.524 1.046-2.096.523-2.882-.523-.785-2.092-2.095-.261-2.881 1.83-.786 1.83-4.715 1.83-4.715l-13.074 1.572z" fill="#2F2E41"/><path d="M149.111 103.999s-2.876 2.358.784 12.049c3.661 9.692 5.23 22.265 5.23 22.265s-3.661 3.143-3.661 4.715c0 1.571-16.211 11.525-15.165 15.978 1.046 4.453 20.133 12.835 21.964 12.311 1.83-.524 10.72-25.67 10.72-25.67s-3.399-27.765-3.661-28.027c-.261-.262-8.105-13.097-8.105-13.097l-4.707-9.691-3.399 9.167z" fill="#2F2E41"/><path opacity=".1" d="M149.111 103.999s-2.876 2.358.784 12.049c3.661 9.692 5.23 22.265 5.23 22.265s-3.661 3.143-3.661 4.715c0 1.571-16.211 11.525-15.165 15.978 1.046 4.453 20.133 12.835 21.964 12.311 1.83-.524 10.72-25.67 10.72-25.67s-3.399-27.765-3.661-28.027c-.261-.262-8.105-13.097-8.105-13.097l-4.707-9.691-3.399 9.167z" fill="#333"/><path d="M148.849 97.975s-2.091 7.596 2.877 15.454c4.968 7.858 10.72 24.098 10.72 24.098s5.491 17.026 3.138 29.337c0 0-.785 1.571 1.307 1.571s24.056-.523 22.225-6.024c-1.83-5.501-9.936-31.17-9.936-31.17l-10.458-25.932-.523-7.858-3.923-6.025h-8.105l-7.322 6.549z" fill="#2F2E41"/><path d="M112.272 105.833s-7.91 0-6.19 2.357c1.719 2.358 8.253 2.096 8.253 2.096l-2.063-4.453zM153.687 51.743s.523 3.667-1.308 4.19c-1.83.525 7.322 4.454 7.322 4.454s1.83-6.287 2.614-7.072c.785-.786-8.628-1.572-8.628-1.572z" fill="#FFB9B9"/><path opacity=".1" d="M153.687 51.743s.523 3.667-1.308 4.19c-1.83.525 7.322 4.454 7.322 4.454s1.83-6.287 2.614-7.072c.785-.786-8.628-1.572-8.628-1.572z" fill="#000"/><path d="M161.008 57.767s-8.106-2.357-8.367-3.143c-.262-.786-2.092 1.048-2.876 2.358-.785 1.31-2.354 2.88-3.138 2.88-.784 0-6.537 3.406-7.844 9.43-.599 2.758-1.471 4.364-2.241 5.294a5.064 5.064 0 00-1.016 2.62.258.258 0 01-.142.207c-.523.262 10.982 11.263 10.982 11.263s4.445-1.048 5.229 0c.784 1.048-.523 2.881-1.307 3.929-.785 1.048-2.615 6.286-1.569 7.072 1.046.786 6.537-7.072 9.674-5.5 3.138 1.571 6.276.261 6.276.261s1.307 4.191 3.399 4.191 2.615-3.405 1.83-4.452c-.784-1.048-3.922-3.144-2.353-6.025 1.569-2.881 2.092-8.12 2.092-8.12s4.183-4.977-3.399-11.001c0 0-2.615-7.335-3.4-7.858-.784-.524-2.091-.786-2.091-1.31s.261-2.096.261-2.096z" fill="#FE9C42"/><path d="M136.168 76.103l-7.844 11.001-6.799 8.382s-7.059 7.596-7.844 8.644c-.784 1.048-3.137.786-2.614 2.358.522 1.571 1.307 4.191 2.091 4.453.785.261 4.445-.262 4.707-.786.261-.524 17.257-10.478 23.271-17.55l5.763-4.043-.011-6.696-10.72-5.763z" fill="#FE9C42"/><path d="M152.011 88.958l15.157.485a.656.656 0 01.638.659v.242a.66.66 0 01-.687.658l-15.157-.726a.657.657 0 01-.629-.659.666.666 0 01.2-.473.655.655 0 01.478-.186z" fill="#2F2E41"/><path d="M167.545 91.819c.144 0 .261-.645.261-1.44 0-.796-.117-1.441-.261-1.441-.145 0-.262.645-.262 1.44 0 .796.117 1.441.262 1.441z" fill="#2F2E41"/><path d="M158.916 55.934c4.044 0 7.322-3.284 7.322-7.334s-3.278-7.334-7.322-7.334c-4.043 0-7.321 3.283-7.321 7.334 0 4.05 3.278 7.334 7.321 7.334z" fill="#FFB9B9"/><path d="M161.976 40.83c-1.418-.36-4.782-.35-5.274-.35a9.01 9.01 0 00-6.385 2.649 9.056 9.056 0 00-2.644 6.396l-3.399 12.696h6.616l1.228-4.715 1.743 4.715h3.331l.286-2.834 1.127 2.834h3.71c-2.778-6.299-4.256-12.04-.606-15.583 2.465.337 4.544-.325 4.883-1.663.39-1.543-1.676-3.398-4.616-4.145z" fill="#2F2E41"/><path d="M15.602 85.69a3.659 3.659 0 01-3.182-1.827 3.675 3.675 0 01-.008-3.674c4.655-7.858 18.8-26.22 49.707-26.22 13.387 0 25.127 3.563 34.88 10.582 8.028 5.763 12.525 12.285 14.669 15.428a3.631 3.631 0 01.574 2.743 3.637 3.637 0 01-1.541 2.339 3.715 3.715 0 01-5.125-.97c-3.896-5.657-15.715-22.84-43.457-22.84-27.089 0-39.326 15.821-43.327 22.605a3.612 3.612 0 01-3.19 1.834z" fill="#7E21F5"/><path d="M77.676 157.565a3.618 3.618 0 01-.915-.105c-22.408-5.631-30.775-28.315-31.115-29.258l-.053-.21c-.183-.654-4.68-16.213 2.223-25.329 3.164-4.164 7.975-6.286 14.329-6.286 5.91 0 10.171 1.86 13.1 5.71 2.405 3.143 3.373 7.02 4.314 10.766 1.961 7.779 3.373 11.865 11.53 12.284 3.583.184 5.936-1.938 7.27-3.745 3.608-4.925 4.236-12.966 1.517-20.038-3.504-9.168-15.898-26.43-37.757-26.43-9.335 0-17.911 3.039-24.788 8.749-5.7 4.74-10.224 11.42-12.394 18.283-4.027 12.782 1.255 32.873 1.307 33.056a3.641 3.641 0 01-1.329 3.838c-.383.288-.82.497-1.285.615a3.705 3.705 0 01-2.792-.368 3.717 3.717 0 01-1.732-2.225c-.235-.917-5.883-22.343-1.229-37.116 5.073-16.005 20.709-32.14 44.242-32.14 10.877 0 21.153 3.746 29.73 10.818 6.64 5.5 12.079 12.887 14.903 20.274 3.609 9.43 2.641 20.012-2.458 26.927-3.399 4.61-8.236 7.02-13.596 6.758-13.963-.707-16.473-10.582-18.303-17.785-1.883-7.387-3.086-10.949-10.276-10.949-3.949 0-6.72 1.1-8.446 3.379-2.353 3.117-2.536 7.989-2.275 11.525l.008.11a29.88 29.88 0 003.977 12.757c3.63 6.27 10.993 15.885 23.208 18.958a3.631 3.631 0 012.738 3c.071.476.047.96-.07 1.427a3.718 3.718 0 01-3.583 2.75z" fill="#7E21F5"/><path d="M48.914 155.889a3.724 3.724 0 01-2.693-1.153c-8.968-9.534-14.041-20.195-15.95-33.528v-.078c-1.072-8.827.497-21.322 8.184-29.913 5.674-6.34 13.65-9.561 23.664-9.561 11.844 0 21.153 5.58 26.958 16.11a45.336 45.336 0 015.072 15.584 3.693 3.693 0 01-7.347.76 37.958 37.958 0 00-4.314-13.018C77.99 93.05 71.138 88.964 62.093 88.964c-7.819 0-13.937 2.384-18.147 7.099-6.066 6.784-7.243 17.235-6.406 24.15 1.674 11.787 6.145 21.164 14.041 29.546a3.63 3.63 0 01.657 4.007c-.2.437-.486.829-.84 1.153a3.705 3.705 0 01-2.484.97z" fill="#7E21F5"/><path d="M62.17 121.68a4.71 4.71 0 004.707-4.715 4.71 4.71 0 00-4.706-4.715 4.71 4.71 0 00-4.707 4.715 4.71 4.71 0 004.707 4.715z" fill="#7E21F5"/></g></g><defs><clipPath id="clip0"><path fill="#fff" d="M7 1h238v210H7z"/></clipPath><filter id="filter0_d" x="0" y="0" width="248" height="220" filterUnits="userSpaceOnUse" color-interpolation-filters="sRGB"><feFlood flood-opacity="0" result="BackgroundImageFix"/><feColorMatrix in="SourceAlpha" values="0 0 0 0 0 0 0 0 0 0 0 0 0 0 0 0 0 0 127 0"/><feOffset dx="-2" dy="4"/><feGaussianBlur stdDeviation="2.5"/><feColorMatrix values="0 0 0 0 0 0 0 0 0 0 0 0 0 0 0 0 0 0 0.25 0"/><feBlend in2="BackgroundImageFix" result="effect1_dropShadow"/><feBlend in="SourceGraphic" in2="effect1_dropShadow" result="shape"/></filter></defs></svg>