<svg width="48" height="47" fill="none" xmlns="http://www.w3.org/2000/svg"><path d="M16.2 20.4a4 4 0 00-4-4 4 4 0 00-7 2.4 4 4 0 004 4v4.6a4 4 0 003.8 4h5.5v14.8a.8.8 0 00.8.8h9.4a.8.8 0 00.7-.8V31.3H35a4 4 0 004-3.9v-4.7a4 4 0 10-1.8-7.4 4 4 0 00-1.4 1.2 4 4 0 00-1.6 7.5v2.6h-4.8l.1-.8c0-.5-.2-1-.6-1.5a2.3 2.3 0 00-.8-3.8c.1-.6.6-1.2 1.2-1.6A10.1 10.1 0 0023.6 0 10.2 10.2 0 0015 15c.9 1.6 2.2 3 3.7 3.9.7.4 1.1 1 1.3 1.6a2.3 2.3 0 00-.9 3.8 2.3 2.3 0 00-.5 2.3h-4.8V24a4 4 0 002.4-3.6zm-1.6 0a2.4 2.4 0 01-3.5 2c-.4-.2-.7-.5-.9-.9L10 21v-1-.3-.2l.2-.3.3-.3c0-.2.2-.3.3-.4l1.1-.5h.3c1.3 0 2.4 1 2.4 2.4zm-6.2.6a2.3 2.3 0 01.7-4.6c.5 0 1 .2 1.4.5h-.1l-.7.5-.1.1a3.7 3.7 0 00-.4.5l-.2.3c-.2.1-.2.3-.3.5l-.1.2a3.8 3.8 0 00-.2 2zm29-4.1c.5-.3 1-.4 1.4-.4a2.4 2.4 0 01.8 4.5 3.7 3.7 0 000-1.3l-.1-.2-.1-.5-.1-.2a4 4 0 00-.3-.5l-.2-.3a3.7 3.7 0 00-.4-.5h-.1a4 4 0 00-.7-.6h-.1zm-4 3.5c0-1.3 1-2.4 2.3-2.4h.3l1.2.5.3.3.2.3v.1l.2.3v.2l.1.2v1c0 .3-.2.4-.3.6a2.3 2.3 0 01-4.3-1.1zM20 22.7c0-.4.3-.8.7-.8h6.3a.8.8 0 010 1.6h-6.3a.8.8 0 01-.7-.8zm1.5-13.3h-.8a.8.8 0 010-1.6c.5 0 .8.4.8.8v.8zm1.6 1.6h1.6v9.4h-1.6V11zm-7.8-1.3a8.5 8.5 0 0117.2.5c0 3-1.6 5.8-4.2 7.4-1 .6-1.8 1.6-2 2.8V11h.7a2.4 2.4 0 10-2.3-2.4v.8h-1.6v-.8a2.4 2.4 0 10-2.4 2.4h.8v9.4c-.3-1.2-1-2.2-2-2.8a8.6 8.6 0 01-4.2-7.9zm11-.3v-.8c0-.4.3-.8.7-.8a.8.8 0 010 1.6h-.8zM20 25.9c0-.5.3-.8.7-.8h6.3a.8.8 0 010 1.5h-6.3a.8.8 0 01-.7-.8zm4.8 2.3l-1 1.6-.9-1.6h2zm-11.9 0h8.2l2.1 3.5a.8.8 0 001.3 0l2.2-3.5h8.1a.8.8 0 00.8-.8v-3.1l1.6-.3v3.4c0 1.3-1 2.4-2.4 2.4h-6.2a.8.8 0 00-.8.8v14.8h-3.1v-8.6h-1.6v8.6H20V30.6a.8.8 0 00-.8-.8H13c-1.3 0-2.3-1-2.3-2.4V24l1.5.3v3.1a.8.8 0 00.8.8zm26.6 4.7h1.6v1.6h-1.6v-1.6zm0 3.1h1.6v1.6h-1.6V36zm-3.1 0H38v1.6h-1.6V36zm6.2 0h1.6v1.6h-1.6V36zM6.7 33h1.6v1.6H6.8v-1.6zm0 3.1h1.6v1.6H6.8V36zm-3 0h1.5v1.6H3.6V36zm6.2 0h1.6v1.6H9.9V36zm-3.1 3.2h1.5v1.5H6.8v-1.5zm-3.2 0h1.6v1.5H3.6v-1.5zm-3 0H2v1.5H.5v-1.5zm9.3 0h1.6v1.5H9.9v-1.5zm3.1 0h1.6v1.5H13v-1.5zm26.6 0h1.6v1.5h-1.6v-1.5zm-3.1 0H38v1.5h-1.6v-1.5zm-3.1 0h1.5v1.5h-1.5v-1.5zm9.3 0h1.6v1.5h-1.6v-1.5zm3.2 0h1.5v1.5H46v-1.5z" fill="#FE9C42"/></svg>