<svg width="35" height="35" fill="none" xmlns="http://www.w3.org/2000/svg"><g filter="url(#filter0_d)"><path d="M26.8 3.7c3.1 2.2 5.2 5.9 5.2 10C32 20.5 26.4 26 19.5 26S7 20.5 7 13.7c0-4.1 2-7.8 5.2-10 .6-.4 1.4-.2 1.8.4l.8 1.4c.3.5.1 1.1-.3 1.5-2.1 1.5-3.5 4-3.5 6.7 0 4.6 3.8 8.3 8.5 8.3a8.3 8.3 0 005-15c-.5-.4-.6-1-.3-1.5L25 4c.4-.6 1.2-.8 1.8-.4zM21.5 14v-12c0-.6-.5-1.1-1.2-1.1h-1.6c-.7 0-1.2.5-1.2 1.2V14c0 .7.5 1.2 1.2 1.2h1.6c.7 0 1.2-.5 1.2-1.2z" fill="#FE9C42"/></g><defs><filter id="filter0_d" x="0" y="0" width="35" height="35" filterUnits="userSpaceOnUse" color-interpolation-filters="sRGB"><feFlood flood-opacity="0" result="BackgroundImageFix"/><feColorMatrix in="SourceAlpha" values="0 0 0 0 0 0 0 0 0 0 0 0 0 0 0 0 0 0 127 0"/><feOffset dx="-2" dy="4"/><feGaussianBlur stdDeviation="2.5"/><feColorMatrix values="0 0 0 0 0 0 0 0 0 0 0 0 0 0 0 0 0 0 0.25 0"/><feBlend in2="BackgroundImageFix" result="effect1_dropShadow"/><feBlend in="SourceGraphic" in2="effect1_dropShadow" result="shape"/></filter></defs></svg>