<svg width="124" height="144" viewBox="0 0 124 144" fill="none" xmlns="http://www.w3.org/2000/svg">
<path d="M69.3694 143.939C99.2716 143.939 123.512 119.705 123.512 89.8106C123.512 59.9165 99.2716 35.6826 69.3694 35.6826C39.4671 35.6826 15.2266 59.9165 15.2266 89.8106C15.2266 119.705 39.4671 143.939 69.3694 143.939Z" fill="#7E21F5"/>
<path d="M4.37485 57.1184C-5.5556 39.6925 1.99091 16.6827 21.2305 5.72479C40.47 -5.23317 64.117 0.0101699 74.0475 17.4361C83.9779 34.862 72.409 45.9687 53.1694 56.9267C33.9298 67.8847 14.3053 74.5443 4.37485 57.1184Z" fill="#FE9C42"/>
<path d="M61.5045 91.9988C71.7243 91.9988 80.009 83.7164 80.009 73.4994C80.009 63.2825 71.7243 55 61.5045 55C51.2847 55 43 63.2825 43 73.4994C43 83.7164 51.2847 91.9988 61.5045 91.9988Z" fill="white"/>
<path d="M61.5046 79.6659C64.9112 79.6659 67.6728 76.9051 67.6728 73.4995C67.6728 70.0938 64.9112 67.333 61.5046 67.333C58.098 67.333 55.3364 70.0938 55.3364 73.4995C55.3364 76.9051 58.098 79.6659 61.5046 79.6659Z" fill="#333333"/>
</svg>
