<svg width="27" height="30" fill="none" xmlns="http://www.w3.org/2000/svg"><path d="M19.373 8.164v-1.64a.274.274 0 00-.274-.274H5.975a.274.274 0 00-.274.273v1.641c0 .15.123.274.274.274h13.124c.15 0 .274-.124.274-.274zM5.975 11.172a.274.274 0 00-.274.273v1.64c0 .151.123.274.274.274h6.289c.15 0 .273-.123.273-.273v-1.64a.274.274 0 00-.273-.274h-6.29zm12.851 3.965a7.383 7.383 0 100 14.765 7.382 7.382 0 100-14.765zM22.5 26.194a5.163 5.163 0 01-3.674 1.52 5.163 5.163 0 01-3.674-1.52 5.163 5.163 0 01-1.521-3.674c0-1.388.54-2.694 1.52-3.675a5.163 5.163 0 013.675-1.52c1.388 0 2.694.54 3.674 1.52a5.163 5.163 0 011.521 3.675c0 1.387-.54 2.693-1.52 3.674zm-.632-6.272h-1.514a.27.27 0 00-.222.113l-2.17 3-.79-1.09a.272.272 0 00-.222-.113h-1.508a.274.274 0 00-.222.435l2.523 3.49c.109.15.331.15.44 0l3.904-5.401a.272.272 0 00-.219-.434zm-10.972 6.7h-7.93V2.558h19.141v11.757c0 .15.123.274.274.274h1.914c.15 0 .273-.123.273-.274V1.191c0-.605-.489-1.093-1.094-1.093H1.6C.995.098.506.586.506 1.19v26.797c0 .605.489 1.094 1.094 1.094h9.296c.15 0 .274-.123.274-.273v-1.915a.274.274 0 00-.274-.273z" fill="#fff"/></svg>