<svg width="40" height="40" fill="none" xmlns="http://www.w3.org/2000/svg"><circle cx="20" cy="20" r="20" fill="#222"/><circle cx="20" cy="20" r="20" fill="url(#paint0_linear)"/><path d="M20 5a15 15 0 100 30 15 15 0 000-30zm0 6a5 5 0 110 10 5 5 0 010-10zm0 21c-4 0-7-2-9-5 1-2 4-3 6-3h6c2 0 5 1 6 3-2 3-5 5-9 5z" fill="#333"/><defs><linearGradient id="paint0_linear" x1="0" y1="18.6" x2="38.9" y2="18.5" gradientUnits="userSpaceOnUse"><stop stop-color="#7E21F5"/><stop offset="1" stop-color="#FE9C42"/></linearGradient></defs></svg>