<svg width="29" height="24" fill="none" xmlns="http://www.w3.org/2000/svg"><path fill-rule="evenodd" clip-rule="evenodd" d="M5.834 10.125H3.959V.75h1.875v9.375zM3.959 23.25h1.875v-5.625H3.959v5.625zm9.375 0h1.875V12h-1.875v11.25zm9.375 0h1.875V19.5h-1.875v3.75zM24.584.75h-1.875V12h1.875V.75zm-9.375 0h-1.875V4.5h1.875V.75zM7.709 12H2.084a1.88 1.88 0 00-1.875 1.875 1.88 1.88 0 001.875 1.875h5.625a1.88 1.88 0 001.875-1.875A1.88 1.88 0 007.709 12zm9.375-5.625h-5.625A1.88 1.88 0 009.584 8.25a1.88 1.88 0 001.875 1.875h5.625a1.88 1.88 0 001.875-1.875 1.88 1.88 0 00-1.875-1.875zm9.375 7.5h-5.625a1.88 1.88 0 00-1.875 1.875 1.88 1.88 0 001.875 1.875h5.625a1.88 1.88 0 001.875-1.875 1.88 1.88 0 00-1.875-1.875z" fill="#fff"/></svg>