<svg width="368" height="263" fill="none" xmlns="http://www.w3.org/2000/svg"><path opacity=".1" d="M184 263c101.6 0 184-5.2 184-11.6 0-6.3-82.4-11.5-184-11.5S0 245 0 251.4c0 6.4 82.4 11.6 184 11.6z" fill="#6C63FF"/><path d="M339.1 242.9a13 13 0 01-.4 3.2c-1 4-3.8 6.9-7.1 7h-.4c-3.5 0-6.5-3-7.5-7.2v-.3a13 13 0 01-.3-2.7c0-5.7 3.5-10.4 7.8-10.4 4.4 0 8 4.7 8 10.4z" fill="#3F3D56"/><path opacity=".1" d="M339.1 242.9a13 13 0 01-.4 3.2h-.3c-.9 0-1.7-.2-2.6-.4a15.7 15.7 0 01-4 .7h-.7a16.4 16.4 0 01-5.5-1c-.6.3-1.3.4-1.9.5v-.3a13 13 0 01-.3-2.7c0-5.7 3.5-10.3 7.9-10.3 4.3 0 7.8 4.6 7.8 10.3z" fill="#000"/><path d="M356 223.7c0-2.5-.6-5-1.8-7.2l-9.2 2.8 8.1-4.7a16 16 0 00-12-7l-1.3-1.6-13.3 4.2 11-6.4a16 16 0 00-25.3 8.5l11.4 13.1-12.4-9a16 16 0 0014.4 28.4c3.3 1.2 6.9 1.3 10.2.2a16 16 0 0019.5-15.6v-1c.4-1.6.7-3.1.7-4.7z" fill="#FE9C42"/><path opacity=".1" d="M355.7 226.6c-5-.9-10-1-14.9-.1-5.5.9-11.2 2.9-16.7 1.4-3.2-.9-6-2.9-9-4-3-1-6.3-1.2-9.4-.5a16 16 0 0019.9 21.4c3.2 1.2 6.9 1.3 10.2.2a16 16 0 0019.5-15.6v-1l.4-1.8z" fill="#000"/><path d="M244.8 60.2h-2c-.4 0-.8.4-.8.8v28.2c0 .5.4.8.8.8h2c.5 0 .8-.3.8-.8V61c0-.4-.3-.8-.8-.8zM123.4 36.9h-1c-.3 0-.5.2-.5.5v8.8c0 .3.2.5.5.5h1c.3 0 .5-.2.5-.5v-8.8c0-.3-.2-.5-.5-.5zM123.5 54.9h-1.1c-.3 0-.6.2-.6.5v16c0 .3.3.5.6.5h1.1c.3 0 .6-.2.6-.6V55.4c0-.3-.3-.5-.6-.5zM123.5 77.9h-1c-.4 0-.7.2-.7.6v16c0 .3.3.6.6.6h1c.4 0 .6-.3.6-.6v-16c0-.4-.2-.6-.5-.6z" fill="#3F3D56"/><path d="M231.5 4.5h-96c-6.9 0-12.5 5.6-12.5 12.5v220.7c0 6.9 5.6 12.5 12.5 12.5h96c6.9 0 12.5-5.6 12.5-12.5V17c0-6.9-5.6-12.5-12.5-12.5z" fill="#333"/><path d="M187.8 11.8h-15c-.6 0-1 .4-1 1v1.6c0 .5.4.9 1 .9h15c.5 0 1-.4 1-1v-1.6c0-.5-.5-.9-1-.9zM193.2 15.5a2 2 0 100-3.9 2 2 0 000 3.9z" fill="#E6E8EC"/><path d="M236.5 20.5v213.7a9.6 9.6 0 01-9.6 9.6h-86.8a9.6 9.6 0 01-9.6-9.6V20.5a9.6 9.6 0 019.6-9.6h13v1.7a8 8 0 008 7.9h44a8 8 0 008-8V11h13.8a9.6 9.6 0 019.6 9.6z" fill="#fff"/><path opacity=".2" d="M237.3 108.7v72.7H130.5V92.8l2-2.4a67 67 0 0150.9-23 73.5 73.5 0 0131.6 6.3 60.2 60.2 0 0021.5 5.1v27.5l.8 2.5z" fill="#7E21F5"/><path opacity=".2" d="M237.3 108.7v72.7H130.5v-47.6c3.8-1 9.1-4.6 16-14.8a33.8 33.8 0 0145-11.4c6.3 3.4 18.4 7.5 27.6-4.4 10.1-13.1 15.5-2.3 17.4 3l.8 2.5z" fill="#6C63FF"/><path d="M221.9 168h-76.5a4.2 4.2 0 00-4.2 4.3v18.2c0 2.3 2 4.2 4.2 4.2H222c2.3 0 4.2-1.9 4.2-4.2v-18.2c0-2.3-2-4.2-4.2-4.2z" fill="#333"/><path d="M47 239.5l6.7-4c-1-1.5-2-3-3.4-4l-12.7 3.9 10-5.9a16.1 16.1 0 00-24 14.2c0 8.9 7.3 9.2 16.2 9.2 8.9 0 16.1-.3 16.1-9.2a16 16 0 00-1.4-6.6l-7.5 2.4z" fill="#7E21F5"/><path opacity=".1" d="M48.7 248.1c-.7-.7-1.5-1.3-2.4-1.8-1.2-.8-2.5-1.7-3.9-2-1.3-.2-2.6 0-3.9 0a9 9 0 01-5.8-2.8c-1-.9-1.7-2-2.8-2.8a6 6 0 00-4-.7l-1.3.2a16 16 0 00-1 5.5c0 8.9 7.3 9.2 16.2 9.2 4.3 0 8.2 0 11.1-1.2l-.5-.9c-.4-1-1-1.8-1.7-2.7z" fill="#000"/><path d="M80 204c-.5.4-1 1-1.2 1.6-.6 1.9 1.1 3.7 1.3 5.7.1 1.5-.7 3-1.2 4.5a9.7 9.7 0 003.3 10.3l1.2.5a2.5 2.5 0 001.9-.5c.8-.6 1.4-1.4 1.7-2.4.3-.9.5-1.9.5-2.8l.3-3.8c.2-3.9.5-8-.5-11.8-.3-1.2-.9-4.1-2.3-4.3-1.5-.2-4 2-5 3z" fill="#3F3D56"/><path d="M104.4 187.9c-1.7 6.1-3 12.4-3.8 18.7 0 1-.2 1.8-.7 2.6-1.1 1.4-3.3 1.3-5 1-.5 0-.9 0-1.3-.3-.6-.4-.8-1.3-.9-2.1-1.2-12-2-24-2.4-36 0-.4 15-.4 16.2.8 1.3 1.2.3 5.7 0 7.2-.4 2.7-1.3 5.4-2 8z" fill="#FBBEBE"/><path opacity=".1" d="M104.4 187.9c-1.7 6.1-3 12.4-3.8 18.7 0 1-.2 1.8-.7 2.6-1.1 1.4-3.3 1.3-5 1-.5 0-.9 0-1.3-.3-.6-.4-.8-1.3-.9-2.1-1.2-12-2-24-2.4-36 0-.4 15-.4 16.2.8 1.3 1.2.3 5.7 0 7.2-.4 2.7-1.3 5.4-2 8z" fill="#000"/><path d="M73.2 170.2l6.1 13.3a43.7 43.7 0 015.6 25l-.8 3.8c-.7 5.1 2.2 10 4.2 14.7 1.7 4.1 2.8 8.5 3.3 13 .1 1.8.2 3.8 1.3 5.4 2-.6 4-1.1 6-1 .4-3-1.6-5.7-2.3-8.7-1.2-5.4 1.6-11.1.6-16.6-.5-3-2.1-5.8-2-8.8.3-5.5 1.3-11 .2-16.5-1.1-6-4.5-11.6-5.3-17.8-.6-4.7.3-10-2.3-14-5.8-.3-11.7 3.1-14.6 8.2z" fill="#FBBEBE"/><path d="M93.2 254c-.6 0-1.3 0-1.7-.6a46.2 46.2 0 01-.7-7.3c0-.7 0-1.6.4-2.2.4-.4.7-.8 1.1-1 1-1 1.6-2.2 2.8-2.6a3 3 0 013 .8 5 5 0 011.4 3c.1 1.3 0 2.7.7 3.8l1 1.2c1 1.4 2 4.2-.2 4.7-2.3.6-5.4 0-7.8.1z" fill="#3F3D56"/><path d="M98.4 91.3c1.3-2.4.5-5.4-1.2-7.5-1.8-2-4.3-3-7-3.7-3.4-.8-7.2-.8-10.6.5-2.6 1-5 2.8-7.4 4.2a33.9 33.9 0 01-14.3 4.6c-5.6.5-11.9-.3-16.2 3.3-8 6.5-2.4 21.3-9.8 28.4-2 2-4.7 3-7 4.5-2.2 1.6-4.3 4-4 6.8.3 1.4 1 2.5 1.8 3.6 3.6 4.5 9.6 6.8 15.3 6.1 5.7-.7 10.9-4.3 13.7-9.4.7-1.2 1.2-2.6 2.3-3.5 2.2-1.8 5.5-1.1 8.4-1.2 6.3-.2 12.1-5.6 12.7-12 .2-2.7-.2-5.9 1.7-7.8 1.6-1.5 4-1.5 6.2-2a13 13 0 008.6-7.2c.9-1.6.8-3.4 2-4.7 1.3-1.5 3.7-.8 4.8-3z" fill="#333"/><g opacity=".1" fill="#000"><path opacity=".1" d="M52.7 90.5c2.3-.2 4.6-.6 6.9-1.3l-2 .2c-4.3.4-9.1 0-13.1 1.5l8.2-.4zM48.8 130.3c-1.1 1-1.7 2.3-2.4 3.5a18.7 18.7 0 01-9.6 8.4h1c5.6-.8 10.8-4.4 13.6-9.4.7-1.3 1.3-2.7 2.4-3.6l.2-.1c-2 0-3.8 0-5.2 1.2zM97 83.9a13 13 0 00-7-3.8c-3.5-.8-7.3-.8-10.6.5l-.2.1c2-.1 4 0 5.8.5a13 13 0 017 3.8c1.7 2 2.4 5 1.2 7.4-1.1 2.2-3.5 1.5-4.9 3-1.2 1.3-1 3.1-2 4.7-1.5 3-3.8 5.5-7 6.7 1.1-.2 2.3-.3 3.4-.6a13 13 0 008.6-7.2c.9-1.6.8-3.4 2-4.7 1.3-1.5 3.7-.8 4.9-3 1.2-2.4.5-5.4-1.3-7.4zM77.7 107.3c-2.1.5-4.6.5-6.1 2-2 2-1.5 5-1.8 7.8-.4 4.8-3.7 9-8 11h.3c6.3-.3 12.1-5.7 12.7-12 .2-2.8-.2-6 1.7-7.9l1.6-1-.4.1z"/></g><path d="M98.6 123.1c-.3.6-1 .8-1.5 1a37.3 37.3 0 01-18 3.4c-.1-1-.4-2-.6-2.9l-1-4.1-.4-2c-.2-1.1-.3-2.2-.2-3.3a7 7 0 011-3l.3-.3c.3-.5.8-.8 1.2-1 1-.6 2.5-.9 3-2a3 3 0 00-.1-1.7l-1.4-4.1c-.5-1.8.2-1.7 2-2.1 3-.8 6.2-1.3 9.3-.7-.1 1.5-.3 3.1.1 4.6.4 1.5 1.4 3 3 3.4l.6.1c.4 0 .7.2 1 .4l.4.6.3 1.1c.5 3.7.9 7.4 1.1 11.1v.1c.1.5 0 1-.1 1.4z" fill="#FBBEBE"/><path d="M68.9 117.1c-1.4 2-1.8 4.4-2.2 6.8l-2.5 14.7c-.4 2-.7 4.3.3 6 .4.6.9 1.1 1.1 1.8l.4 2c.6 3.3 4 5.6 7.3 6.4 1.2.3 2.6.4 3.5-.4 1-.8 1-2.5.5-3.7-.7-1.2-1.8-2-2.9-2.8l-3.6-2.7 2-16.1c.2-1.2.8-2.7 2-2.6 1 .1 1.9 1.7 2.8 1.2.3-.2.5-.5.6-.9.4-1.3.3-2.7.2-4.1l-.4-5c-.2-1.6.3-2.8.4-4.4.3-1.7-1-1.2-2.4-.8A12 12 0 0069 117zM114 141.3c-.2.5-.6.8-1 1a13 13 0 01-9.4 1.4l-2.3-.5c-1.2-.2-2.4 0-3.6 0-2.4-.2-4.6-1.8-6.3-3.6-1-1-2-2.7-1-3.8a2.3 2.3 0 012.1-.7l2.1.8c2.4 1.1 4.9 1.8 7.5 2 1.7.2 4 0 4.5-1.7.3-.8.1-1.7 0-2.6l-1.8-6.8a2 2 0 00-.2-.6v-.2l-.9-.3a7.3 7.3 0 01-3.5-1.8 7.9 7.9 0 01-1.5-2.3l-.2-.7-2.1-5.1a21 21 0 01-1-3.7c0-1-.1-1.6.4-2l.5-.3 1-.5.3-.1 2.9-1c2.4-.5 5 .7 6.7 2.5 1.7 1.9 2.5 4.3 3 6.8l1.6 7.3.9 2.8.5 3.4 1 8.7c0 .5 0 1.1-.2 1.6z" fill="#FBBEBE"/><path d="M78 140c.8 4.5-1.3 9-3.2 13a11 11 0 003.8 1.6 75 75 0 0027 2c.2-1.5.4-3.1-.2-4.5-.4-.9-1-1.6-1.4-2.4-.8-1.4-.7-3-.6-4.6l.6-13.3c-4.3-2-9.4 0-14.2.2-2.4.1-5-.2-7.4.3-1.3.2-5.2.8-5.8 2.1-.6 1.3 1.2 4.2 1.5 5.7z" fill="#FBBEBE"/><path opacity=".1" d="M78 140c.8 4.5-1.3 9-3.2 13a11 11 0 003.8 1.6 75 75 0 0027 2c.2-1.5.4-3.1-.2-4.5-.4-.9-1-1.6-1.4-2.4-.8-1.4-.7-3-.6-4.6l.6-13.3c-4.3-2-9.4 0-14.2.2-2.4.1-5-.2-7.4.3-1.3.2-5.2.8-5.8 2.1-.6 1.3 1.2 4.2 1.5 5.7z" fill="#000"/><path d="M89.6 152.9c-4.7-1-9.4-2.6-14.2-2.7l-.7.1a88.3 88.3 0 00-1.8 6c-1.3 5.8-1.9 12.2 1 17.3 0-1.6 1-3.2 2.4-4.2 1.4-.9 3.1-1.3 4.8-1.4 1.7-.2 3.5-.1 5 .6a6.8 6.8 0 014 5.5l16.6.6a.6.6 0 00.6-.1.6.6 0 00.2-.6c.6-5.3.6-10.7 0-16-.3-1.4-.3-3.5-2-4-2-.7-5 0-7.2 0-3-.2-5.9-.5-8.7-1.1z" fill="#333"/><path d="M104.6 127v7.3l-16.8.6c-3 0-6.2.2-9.2.8l-2.5.7c-.9-3.2-1.8-6.6-1.5-9.9 0-.9.2-1.8.4-2.6.6-1.9 1.6-3.6 2-5.4.3-.7.4-1.5.4-2.2 0-.8-.1-1.5-.3-2.2-.2-.6-.2-1.2-.2-1.8l1.3-.4a7.1 7.1 0 01.2 1.5l.1 2.5c0 1.7-.3 3.6.8 4.9 1.4 1.7 4 1.4 6.1 1l5.7-1.1c1.8-.4 3.7-.9 4.7-2.4.4-.8.6-1.6.6-2.5v-.1a19.3 19.3 0 00-1-7.3h.5l.9.4.4.6.3-.1a49 49 0 007 16v1l.1.6z" fill="#FE9C42"/><path d="M87 104.7a10.2 10.2 0 100-20.3 10.2 10.2 0 000 20.3zM68.9 117.1c-1.4 2-1.8 4.4-2.2 6.8l-2.5 14.7c-.4 2-.7 4.3.3 6 .4.6.9 1.1 1.1 1.8l.4 2c.6 3.3 4 5.6 7.3 6.4 1.2.3 2.6.4 3.5-.4 1-.8 1-2.5.5-3.7-.7-1.2-1.8-2-2.9-2.8l-3.6-2.7 2-16.1c.2-1.2-2.3-14.5-4-12zM110.3 117.5c.5 2.4.8 5 1.5 7.3l.9 2.8.5 3.4 1 8.7c0 .5 0 1.1-.2 1.6s-.6.8-1 1a13 13 0 01-9.4 1.4l-2.3-.6h-3.6c-2.4-.1-4.6-1.7-6.3-3.4-1-1-2-2.8-1-4a2.3 2.3 0 012.1-.6l2.1.8c2.4 1.1 4.9 1.8 7.5 2 1.7.2 4 0 4.5-1.7.3-.8.1-1.7 0-2.6l-1.8-6.8c0-.3 5-11.7 5.5-9.3z" fill="#FBBEBE"/><path d="M80.6 97.7c-.4-1.7-1-3.7.2-4.8a3 3 0 011.6-.6c2.9-.4 5.8 1.3 8.5.4a4.8 4.8 0 001-8.6 9.4 9.4 0 00-4-1c-3.7-.3-7.5-.6-10.9.7-3.3 1.4-6.2 4.8-5.5 8.4a11 11 0 002.5 4.6c.8 1 4 6 5.4 5.8 1.9 0 1.5-3.9 1.2-5z" fill="#333"/><path opacity=".1" d="M91.8 84.1l-.6-.3a4.7 4.7 0 01-1.7 8c-2.7 1-5.7-.8-8.5-.4a3 3 0 00-1.6.6c-1.3 1.1-.7 3.1-.2 4.7.3 1.1.6 5-1.2 5 .5.6 1 1 1.4 1 1.9-.2 1.5-4 1.2-5-.4-1.7-1-3.7.2-4.8a3 3 0 011.6-.6c2.9-.3 5.8 1.3 8.5.4a4.8 4.8 0 001-8.6z" fill="#000"/><path d="M241.1 210.5H127v35.3H241v-35.3z" fill="#333"/><path d="M179 221.9v12.5l10-6.3-10-6.2z" fill="#fff"/><path d="M91.5 12L86 15.4l3.3-6c-.9-.7-2-1.2-3.3-1.2h-1.2L83 9.2l.8-1.4a6.5 6.5 0 01-3.2-2.5l-3.3 2.1 2-3.8A9.7 9.7 0 0072 0c-3.4 0-6.4 2-8.4 5.2a6.3 6.3 0 01-5.6 3h-.2c-3.8 0-6.9 4.3-6.9 9.6s3.1 9.6 6.9 9.6c.8 0 1.6-.2 2.4-.6a9.9 9.9 0 018.3-.2 8.6 8.6 0 007 0 10 10 0 018.3.2c.7.4 1.5.6 2.3.6 3.8 0 6.9-4.3 6.9-9.6 0-2-.5-4-1.4-5.8zM277.6 90l-2.7 1.8 1.6-3c-.5-.4-1-.6-1.6-.6h-.6l-1 .6.4-.8c-.6-.2-1.2-.6-1.6-1.2l-1.6 1 1-1.8a4.8 4.8 0 00-3.7-1.9 5 5 0 00-4.2 2.6 3.1 3.1 0 01-2.8 1.5c-2 0-3.5 2.2-3.5 4.8 0 2.7 1.5 4.8 3.4 4.8.4 0 .9-.1 1.2-.3a5 5 0 014.2 0 4.3 4.3 0 003.5 0 5 5 0 014 0c.4.2.8.3 1.3.3 1.8 0 3.4-2.1 3.4-4.8 0-1-.2-2-.7-3zM283.6 45.4l4.3 2.8-2.6-4.8c.7-.6 1.7-1 2.6-1h1l1.5.9-.7-1.1c1-.4 2-1.1 2.6-2l2.7 1.7-1.7-3c1.5-2 3.6-3 6-3 2.7 0 5.1 1.6 6.7 4.1a5 5 0 004.5 2.4h.1c3 0 5.5 3.5 5.5 7.7 0 4.3-2.4 7.7-5.5 7.7-.6 0-1.3-.2-1.9-.5a8 8 0 00-6.6-.1 7 7 0 01-5.7 0 8 8 0 00-6.6.1c-.6.3-1.2.5-1.9.5-3 0-5.5-3.5-5.5-7.7 0-1.6.4-3.2 1.2-4.7z" fill="#F2F2F2"/></svg>