<svg width="17" height="17" fill="none" xmlns="http://www.w3.org/2000/svg"><path fill-rule="evenodd" clip-rule="evenodd" d="M8.5 1A7 7 0 008 1V0h.6v1zm2 .5a7 7 0 00-1-.3l.3-1 1 .3-.3 1zm1.4.7a7 7 0 00-.4-.3l.4-.9 1 .7-.6.8a7 7 0 00-.4-.3zM13.7 4a7 7 0 00-.6-.8l.7-.7.7.9-.8.6zm.8 1.3l-.2-.4.8-.5.5 1-1 .4a7 7 0 00-.1-.5zm.5 2.5l-.1-1 1-.2.1 1.2h-1zm-.1 1.6v-.5h1c0 .5 0 .9-.2 1.2l-1-.2.2-.5zm-1 2.3c.2-.2.4-.5.5-.9l1 .4a8 8 0 01-.6 1l-.9-.5zM13 13l.4-.4.8.6-.4.5-.7-.8z" fill="#968E7D"/><path fill-rule="evenodd" clip-rule="evenodd" d="M8 1a7 7 0 105 12l.7.7A8 8 0 118 0v1z" fill="#968E7D"/><path fill-rule="evenodd" clip-rule="evenodd" d="M7.5 3a.5.5 0 01.5.5v5.2l3.3 1.9a.5.5 0 01-.5.8l-3.5-2A.5.5 0 017 9V3.5a.5.5 0 01.5-.5z" fill="#968E7D"/></svg>